# xmcd
#
# Track frame offsets: 
#        150
#        11475
#        26650
#        37150
#        45775
#        54975
#        67275
#        76100
#        95575
#        106950
#        122200
#        135175
#
# Disc length: 1965 seconds
#
# Revision: 0
# Processed by: cddbd v1.5.2PL0 Copyright (c) Steve Scherf et al.
# Submitted via: ExactAudioCopy v0.90b4
#
DISCID=9407ab0c
DTITLE=Kitty McIntyre - The Cat Came Back
DYEAR=2003
DGENRE=Bluegrass
TTITLE0=Geronimo Stomp
TTITLE1=Quirkey Turkey
TTITLE2=Maiden's Prayer
TTITLE3=Battle Hymn of the Republic
TTITLE4=Little Rock Getaway
TTITLE5=Pig Ankle Rag
TTITLE6=Fire on the Mountain
TTITLE7=What A Friend We Have in Jesus
TTITLE8=Lost Indian
TTITLE9=Amazing Grace
TTITLE10=Dill Pickle Rag
TTITLE11=Draggin' The Bow
EXTD=
EXTT0=
EXTT1=
EXTT2=
EXTT3=
EXTT4=
EXTT5=
EXTT6=
EXTT7=
EXTT8=
EXTT9=
EXTT10=
EXTT11=
PLAYORDER=
